<?xml version="1.0" encoding="UTF-8" standalone="no"?>
<svg
   xmlns:dc="http://purl.org/dc/elements/1.1/"
   xmlns:cc="http://creativecommons.org/ns#"
   xmlns:rdf="http://www.w3.org/1999/02/22-rdf-syntax-ns#"
   xmlns:svg="http://www.w3.org/2000/svg"
   xmlns="http://www.w3.org/2000/svg"
   xmlns:sodipodi="http://sodipodi.sourceforge.net/DTD/sodipodi-0.dtd"
   xmlns:inkscape="http://www.inkscape.org/namespaces/inkscape"
   viewBox="0 0 1764.5846 679.52002"
   version="1.1"
   id="svg3405"
   height="679.52002"
   width="1764.5846"
   sodipodi:docname="Maithili in Tirhuta script.svg"
   inkscape:version="0.92.2 (5c3e80d, 2017-08-06)">
  <sodipodi:namedview
     pagecolor="#ffffff"
     bordercolor="#666666"
     borderopacity="1"
     objecttolerance="10"
     gridtolerance="10"
     guidetolerance="10"
     inkscape:pageopacity="0"
     inkscape:pageshadow="2"
     inkscape:window-width="1366"
     inkscape:window-height="693"
     id="namedview13"
     showgrid="false"
     inkscape:pagecheckerboard="true"
     fit-margin-top="0"
     fit-margin-left="0"
     fit-margin-right="0"
     fit-margin-bottom="0"
     inkscape:zoom="0.088388348"
     inkscape:cx="1128.5126"
     inkscape:cy="1418.6801"
     inkscape:window-x="-9"
     inkscape:window-y="-9"
     inkscape:window-maximized="1"
     inkscape:current-layer="svg3405" />
  <defs
     id="defs3407" />
  <metadata
     id="metadata3410">
    <rdf:RDF>
      <cc:Work
         rdf:about="">
        <dc:format>image/svg+xml</dc:format>
        <dc:type
           rdf:resource="http://purl.org/dc/dcmitype/StillImage" />
        <dc:title></dc:title>
      </cc:Work>
    </rdf:RDF>
  </metadata>
  <g
     id="g136"
     transform="translate(2816.8888,-1.763916e-5)">
    <path
       d="m -2482.9155,244.69336 h -37.2 -15.7067 q -76.88,0 -120.6933,65.30667 -43.8133,64.48 -43.8133,186 0,65.30667 25.6266,104.16 26.4534,38.85334 57.8667,38.85334 5.7867,0 10.7467,-2.48 5.7866,-2.48 10.7466,-7.44 -8.2666,-5.78667 -13.2266,-14.05334 -4.1334,-9.09333 -4.1334,-19.84 0,-15.70666 12.4,-28.93333 13.2267,-13.22667 32.24,-13.22667 20.6667,0 33.8934,14.05333 13.2266,14.05334 13.2266,37.20001 0,27.28 -20.6666,44.64 -20.6667,17.36 -50.4267,17.36 -61.1733,0 -104.16,-55.38667 -42.16,-55.38667 -42.16,-139.70667 0,-123.17334 48.7733,-189.30667 48.7734,-66.96 119.8667,-68.61334 1.6533,-5.78666 2.48,-9.92 0.8267,-4.13333 0.8267,-9.09333 0,-16.53333 -16.5334,-24.8 -16.5333,-9.09334 -52.08,-9.09334 -4.96,0 -19.84,1.65334 -14.88,1.65333 -28.1066,1.65333 -64.48,0 -99.2,-23.97333 -34.72,-24.8 -34.72,-67.786671 0,-10.746667 4.1333,-23.146667 4.1333,-12.4 10.7467,-21.493334 l 18.1866,12.400001 q -7.44,7.44 -9.92,15.706667 -3.3066,7.44 -3.3066,15.706667 0,20.666667 14.88,31.413337 14.0533,10.74666 41.3333,10.74666 7.44,0 29.76,-1.65333 23.1467,-1.65333 31.4133,-1.65333 68.6134,0 101.68,28.10666 33.8934,28.10667 35.5467,75.22667 h 31.4133 z"
       style="font-style:normal;font-variant:normal;font-weight:normal;font-stretch:normal;font-size:826.66668701px;line-height:125%;font-family:Shree-BarunXW;-inkscape-font-specification:Shree-BarunXW;text-align:center;letter-spacing:0px;word-spacing:0px;text-anchor:middle;fill:#000000;fill-opacity:1;stroke:none;stroke-width:1px;stroke-linecap:butt;stroke-linejoin:miter;stroke-opacity:1"
       id="path20"
       inkscape:connector-curvature="0" />
    <path
       d="m -2124.788,244.69336 h -66.1333 v 421.60001 l -14.0534,-14.05334 q -11.5733,-57.04 -38.8533,-95.06667 -26.4533,-38.02666 -69.44,-52.90666 -13.2267,24.8 -32.24,36.37333 -19.0133,11.57333 -42.16,11.57333 -31.4133,0 -52.08,-19.84 -19.84,-20.66666 -19.84,-54.56 0,-28.10666 20.6667,-47.12 21.4933,-19.84 54.56,-19.84 9.92,0 18.1866,2.48 8.2667,1.65333 15.7067,6.61333 4.1333,-2.48 7.44,-9.92 3.3067,-7.44 3.3067,-13.22666 0,-25.62667 -28.1067,-53.73334 -28.1067,-28.93333 -78.5333,-42.98666 -36.3734,-10.74667 -48.7734,-21.49334 -12.4,-11.57333 -12.4,-33.89333 h -10.7466 l -38.8534,-31.41334 h 400.9334 z m -100.0267,308.34667 V 244.69336 h -206.6666 q 0,1.65333 1.6533,4.96 1.6533,3.30666 4.1333,4.96 78.5334,71.09333 104.16,109.94667 26.4534,38.02666 26.4534,72.74667 0,4.96 -1.6534,10.74666 -0.8266,4.96 -3.3066,9.92 23.9733,22.32 45.4666,50.42667 21.4934,28.10667 28.1067,44.64 z"
       style="font-style:normal;font-variant:normal;font-weight:normal;font-stretch:normal;font-size:826.66668701px;line-height:125%;font-family:Shree-BarunXW;-inkscape-font-specification:Shree-BarunXW;text-align:center;letter-spacing:0px;word-spacing:0px;text-anchor:middle;fill:#000000;fill-opacity:1;stroke:none;stroke-width:1px;stroke-linecap:butt;stroke-linejoin:miter;stroke-opacity:1"
       id="path22"
       inkscape:connector-curvature="0" />
    <path
       d="m -1694.0301,164.50669 q -59.52,-57.86667 -117.3866,-81.840004 -57.8667,-23.973334 -106.64,-23.973334 -61.1734,0 -107.4667,36.373335 -46.2934,35.546663 -46.2934,74.400003 0,10.74667 5.7867,23.97333 6.6133,12.4 15.7067,19.84 h 46.2933 l 31.4134,31.41334 h -69.4401 l 7.44,434.82667 -42.9866,-42.98666 3.3066,-391.84001 h -67.7866 l -36.3734,-31.41334 h 104.9867 q -16.5333,-15.70666 -29.76,-37.2 -12.4,-21.49333 -12.4,-37.2 0,-39.68 51.2533,-81.013334 52.0801,-42.160001 122.3467,-42.160001 56.2134,0 122.3467,33.066667 66.96,32.240001 125.6533,95.893338 z"
       style="font-style:normal;font-variant:normal;font-weight:normal;font-stretch:normal;font-size:826.66668701px;line-height:125%;font-family:Shree-BarunXW;-inkscape-font-specification:Shree-BarunXW;text-align:center;letter-spacing:0px;word-spacing:0px;text-anchor:middle;fill:#000000;fill-opacity:1;stroke:none;stroke-width:1px;stroke-linecap:butt;stroke-linejoin:miter;stroke-opacity:1"
       id="path24"
       inkscape:connector-curvature="0" />
    <path
       d="m -1572.8846,244.69336 h -37.2 q -11.5734,0 -19.0134,-2.48 -6.6133,-2.48 -8.2666,-6.61334 h -1.6534 v 430.69335 l -14.0533,-14.05334 q -0.8267,-24.8 -23.9733,-56.21333 -23.1467,-31.41334 -77.7067,-67.78667 -33.8933,-22.32 -64.48,-31.41333 -30.5867,-9.92 -70.2667,-12.4 l -59.52,-74.40001 q 10.7467,2.48 16.5334,3.30667 5.7866,0 11.5733,0 66.96,0 116.56,-38.85333 50.4267,-38.85334 50.4267,-82.66667 0,-22.32 -18.1867,-38.02667 -18.1867,-15.70667 -47.9467,-15.70667 -22.32,0 -42.9866,12.4 -20.6667,12.4 -32.24,30.58667 14.88,3.30667 23.1466,14.88 8.2667,11.57334 8.2667,28.10667 0,17.36 -13.2267,30.58667 -13.2266,13.22666 -32.24,13.22666 -20.6666,0 -38.0266,-16.53333 -16.5334,-16.53333 -16.5334,-41.33333 0,-40.50667 36.3734,-74.40001 37.2,-33.89333 90.9333,-33.89333 49.6,0 82.6667,36.37333 33.8933,35.54667 33.8933,80.18667 0,38.02667 -28.9333,72.74667 -28.1067,34.72 -85.9734,55.38667 24.8,9.92 47.9467,23.14667 23.1467,13.22666 43.8133,29.76 19.84,16.53333 37.2,34.72 17.36,18.18666 31.4134,39.68 h 1.6533 V 139.70669 l 19.84,19.84 q 0,23.97333 12.4,38.85333 13.2267,14.88 33.0667,14.88 h 2.48 z"
       style="font-style:normal;font-variant:normal;font-weight:normal;font-stretch:normal;font-size:826.66668701px;line-height:125%;font-family:Shree-BarunXW;-inkscape-font-specification:Shree-BarunXW;text-align:center;letter-spacing:0px;word-spacing:0px;text-anchor:middle;fill:#000000;fill-opacity:1;stroke:none;stroke-width:1px;stroke-linecap:butt;stroke-linejoin:miter;stroke-opacity:1"
       id="path26"
       inkscape:connector-curvature="0" />
    <path
       d="m -1052.3042,244.69336 h -69.4401 l 7.44,434.82667 -42.9866,-42.98666 3.3066,-391.84001 h -67.7866 l -36.3734,-31.41334 h 102.5067 q 0,-30.58666 -12.4,-59.52 -11.5733,-29.76 -36.3733,-53.73333 -29.76,-28.106671 -78.5334,-45.466671 -48.7733,-17.36 -106.64,-17.36 -68.6133,0 -99.2,13.226667 -31.4133,13.226667 -31.4133,33.893334 0,12.4 11.5733,18.18667 11.5734,4.96 25.6267,4.96 6.6133,0 36.3733,-2.48 29.76,-3.30667 41.3334,-3.30667 66.96,0 101.68,26.45333 34.72,25.62667 34.72,83.49334 h -31.4134 q 5.7867,-3.30667 8.2667,-8.26667 2.48,-5.78666 2.48,-12.4 0,-19.01333 -14.88,-28.93333 -15.7067,-9.92 -47.9467,-9.92 -5.7866,0 -25.6266,1.65333 -19.84,1.65333 -28.9334,1.65333 -64.48,0 -98.3733,-19.01333 -34.72,-19.01333 -34.72,-52.906667 0,-37.200001 38.0267,-60.346668 37.2,-23.14666736084 110.7733,-23.14666736084 113.2533,0 181.8667,57.04000136084 69.44,57.040001 87.6266,156.240001 h 38.0267 z"
       style="font-style:normal;font-variant:normal;font-weight:normal;font-stretch:normal;font-size:826.66668701px;line-height:125%;font-family:Shree-BarunXW;-inkscape-font-specification:Shree-BarunXW;text-align:center;letter-spacing:0px;word-spacing:0px;text-anchor:middle;fill:#000000;fill-opacity:1;stroke:none;stroke-width:1px;stroke-linecap:butt;stroke-linejoin:miter;stroke-opacity:1"
       id="path31"
       inkscape:connector-curvature="0" />
    <g
       transform="translate(-641.90411,64.17575)"
       id="g126">
      <path
         style="font-style:normal;font-variant:normal;font-weight:normal;font-stretch:normal;font-size:826.66668701px;line-height:125%;font-family:Shree-BarunXW;-inkscape-font-specification:Shree-BarunXW;text-align:center;letter-spacing:0px;word-spacing:0px;text-anchor:middle;fill:#000000;fill-opacity:1;stroke:none;stroke-width:1px;stroke-linecap:butt;stroke-linejoin:miter;stroke-opacity:1"
         d="m -965.70309,149.10351 34.7226,31.4141 h 285.1973 l -5.7852,391.8398 42.9864,42.9864 -6.6133,-434.8262 h 69.4394 l -32.2402,-31.4141 z"
         id="path120"
         inkscape:connector-curvature="0" />
      <path
         inkscape:connector-curvature="0"
         id="path30"
         d="m -647.13461,413.2561 c -3.3067,-10.4711 -11.90598,-20.1155 -16.86598,-28.9333 -4.4089,-9.3689 -9.3689,-17.6355 -14.88,-24.8 -12.1245,-17.0845 -25.6267,-30.8622 -40.5067,-41.3333 -14.3289,-10.4711 -27.8311,-15.7067 -40.5066,-15.7067 -27.0045,0 -47.9467,9.92 -62.8267,29.76 -14.88,19.84 -22.32,40.2311 -22.32,61.1733 0,15.4311 3.5822,28.6578 10.7467,39.68 7.1644,10.4711 16.2577,16.5334 27.28,18.1867 -2.2045,-3.8578 -3.8578,-7.7156 -4.96,-11.5733 -1.1023,-4.4089 -1.6534,-9.0934 -1.6534,-14.0534 0,-11.5733 4.1334,-21.2178 12.4,-28.9333 8.2667,-7.7155 18.7378,-11.5733 31.4134,-11.5733 12.6755,0 23.6977,5.5111 33.0666,16.5333 9.92,11.0222 14.88,24.2489 14.88,39.68 0,18.7378 -6.3377,33.6178 -19.0133,44.64 -12.1244,11.0222 -27.5556,16.5333 -46.2933,16.5333 -27.5556,0 -52.08,-10.1955 -73.5734,-30.5866 -21.4933,-20.9423 -32.24,-48.7734 -32.24,-83.4934 0,-40.7822 12.4,-73.5733 37.2,-98.3732 24.8,-25.3511 51.8045,-38.0267 81.0134,-38.0267 20.3911,0 39.4044,7.44 57.04,22.32 18.1866,14.3289 35.5466,36.3733 52.08,66.1333 3.3066,6.6133 6.0622,12.4 8.2666,17.36 2.7556,4.96 5.2356,9.92 7.44,14.88 h 1.6534"
         style="font-style:normal;font-variant:normal;font-weight:normal;font-stretch:normal;font-size:826.66668701px;line-height:125%;font-family:Shree-BarunXW;-inkscape-font-specification:Shree-BarunXW;text-align:center;letter-spacing:0px;word-spacing:0px;text-anchor:middle;fill:#000000;fill-opacity:1;stroke:none;stroke-width:1px;stroke-linecap:butt;stroke-linejoin:miter;stroke-opacity:1"
         sodipodi:nodetypes="ccccssscccssscscscscsccccc" />
    </g>
  </g>
</svg>
